<svg width="16" height="16" viewBox="0 0 16 16" fill="none" xmlns="http://www.w3.org/2000/svg">
  <!-- Eye shape (same as your eye.svg) -->
  <mask id="eye-shape" fill="white">
    <path d="M14.0306 9.0715H14.0333H14.028H14.0306ZM13.653 8.79293C13.7065 8.96328 13.8608 9.07043 14.0306 9.0715C14.0681 9.0715 14.1094 9.06078 14.1512 9.05007C14.3601 8.98578 14.478 8.75543 14.4083 8.5465C14.3922 8.49828 12.7851 3.71436 8.00011 3.71436C3.21511 3.71436 1.60743 8.49828 1.59136 8.5465C1.52171 8.75543 1.63957 8.98043 1.8485 9.05007C2.06278 9.11971 2.28778 9.00185 2.35743 8.79293L2.35903 8.79025C2.43028 8.58132 3.82528 4.51793 8.00546 4.51793C12.2065 4.51793 13.594 8.61614 13.653 8.79293ZM6.12511 9.0715C6.12511 8.57422 6.32265 8.0973 6.67428 7.74567C7.02591 7.39404 7.50282 7.1965 8.00011 7.1965C8.49739 7.1965 8.9743 7.39404 9.32593 7.74567C9.67756 8.0973 9.8751 8.57422 9.8751 9.0715C9.8751 9.56878 9.67756 10.0457 9.32593 10.3973C8.9743 10.749 8.49739 10.9465 8.00011 10.9465C7.50282 10.9465 7.02591 10.749 6.67428 10.3973C6.32265 10.0457 6.12511 9.56878 6.12511 9.0715ZM8.00011 6.39293C7.2897 6.39293 6.6084 6.67513 6.10607 7.17746C5.60374 7.67979 5.32153 8.3611 5.32153 9.0715C5.32153 9.7819 5.60374 10.4632 6.10607 10.9655C6.6084 11.4679 7.2897 11.7501 8.00011 11.7501C8.71051 11.7501 9.39181 11.4679 9.89414 10.9655C10.3965 10.4632 10.6787 9.7819 10.6787 9.0715C10.6787 8.3611 10.3965 7.67979 9.89414 7.17746C9.39181 6.67513 8.71051 6.39293 8.00011 6.39293Z"/>
  </mask>
  <path d="M14.0306 9.0715H14.0333H14.028H14.0306ZM13.653 8.79293C13.7065 8.96328 13.8608 9.07043 14.0306 9.0715C14.0681 9.0715 14.1094 9.06078 14.1512 9.05007C14.3601 8.98578 14.478 8.75543 14.4083 8.5465C14.3922 8.49828 12.7851 3.71436 8.00011 3.71436C3.21511 3.71436 1.60743 8.49828 1.59136 8.5465C1.52171 8.75543 1.63957 8.98043 1.8485 9.05007C2.06278 9.11971 2.28778 9.00185 2.35743 8.79293L2.35903 8.79025C2.43028 8.58132 3.82528 4.51793 8.00546 4.51793C12.2065 4.51793 13.594 8.61614 13.653 8.79293ZM6.12511 9.0715C6.12511 8.57422 6.32265 8.0973 6.67428 7.74567C7.02591 7.39404 7.50282 7.1965 8.00011 7.1965C8.49739 7.1965 8.9743 7.39404 9.32593 7.74567C9.67756 8.0973 9.8751 8.57422 9.8751 9.0715C9.8751 9.56878 9.67756 10.0457 9.32593 10.3973C8.9743 10.749 8.49739 10.9465 8.00011 10.9465C7.50282 10.9465 7.02591 10.749 6.67428 10.3973C6.32265 10.0457 6.12511 9.56878 6.12511 9.0715ZM8.00011 6.39293C7.2897 6.39293 6.6084 6.67513 6.10607 7.17746C5.60374 7.67979 5.32153 8.3611 5.32153 9.0715C5.32153 9.7819 5.60374 10.4632 6.10607 10.9655C6.6084 11.4679 7.2897 11.7501 8.00011 11.7501C8.71051 11.7501 9.39181 11.4679 9.89414 10.9655C10.3965 10.4632 10.6787 9.7819 10.6787 9.0715C10.6787 8.3611 10.3965 7.67979 9.89414 7.17746C9.39181 6.67513 8.71051 6.39293 8.00011 6.39293Z" fill="#626262"/>
  <!-- Diagonal slash for "off" state -->
  <line x1="3" y1="13" x2="13" y2="3" stroke="#BCBCBC" stroke-width="1.5" stroke-linecap="round"/>
</svg>